<svg version="1.1" id="Layer_1" xmlns="http://www.w3.org/2000/svg" xmlns:xlink="http://www.w3.org/1999/xlink" x="0px" y="0px"
	 width="100%" viewBox="0 0 500 500" enable-background="new 0 0 500 500" xml:space="preserve">
<path fill="#8F6E5D" opacity="1.000000" stroke="none" 
	d="
M226.000000,501.000000 
	C150.666687,501.000000 75.833366,501.000000 1.000040,501.000000 
	C1.000027,334.333405 1.000027,167.666779 1.000013,1.000130 
	C167.666565,1.000086 334.333130,1.000086 500.999756,1.000043 
	C500.999847,167.666534 500.999847,334.333069 500.999939,500.999817 
	C409.500000,501.000000 318.000000,501.000000 226.000000,501.000000 
M360.250824,218.499878 
	C360.250824,247.571808 360.250824,276.643738 360.250824,305.574982 
	C365.299072,305.574982 369.520630,305.574982 373.755981,305.574982 
	C373.755981,252.192642 373.755981,199.252594 373.755981,145.751358 
	C370.921356,145.751358 368.228394,146.081619 365.648529,145.681808 
	C360.460876,144.877884 358.128143,147.248337 356.027252,151.823975 
	C342.143341,182.062607 327.969543,212.168594 313.762054,242.257309 
	C312.779205,244.338745 310.761688,245.931625 309.225311,247.751694 
	C307.616150,245.975266 305.584564,244.429810 304.466309,242.384918 
	C297.201019,229.099396 290.141296,215.701599 282.991058,202.352966 
	C282.339722,201.136932 281.525452,200.008179 280.165680,197.855545 
	C279.964783,210.600281 278.508148,222.007446 285.863098,232.540237 
	C290.971283,239.855545 294.494354,248.277451 298.728424,256.203461 
	C300.827026,260.131897 302.931854,264.056946 305.386139,268.641571 
	C306.545532,266.259186 307.353699,264.649963 308.118103,263.020203 
	C323.448395,230.334076 338.757874,197.638168 354.135162,164.974197 
	C355.163391,162.790100 356.697815,160.844315 357.996796,158.787689 
	C358.748138,158.994064 359.499481,159.200439 360.250824,159.406815 
	C360.250824,178.771149 360.250824,198.135498 360.250824,218.499878 
M195.016663,326.289398 
	C199.223801,328.060577 203.278015,330.587921 207.663956,331.474854 
	C229.030380,335.795380 247.395142,326.091675 253.342148,307.248047 
	C254.962601,302.113464 255.538467,296.459290 255.558899,291.039673 
	C255.728516,246.074387 255.655273,201.108200 255.655426,156.142273 
	C255.655472,145.009583 255.654968,145.004181 244.430557,145.883896 
	C243.976318,145.919495 243.544479,146.241104 242.696289,146.602295 
	C242.696289,148.644394 242.696274,150.784119 242.696274,152.923828 
	C242.696167,200.221329 242.710709,247.518829 242.667297,294.816284 
	C242.663940,298.469818 242.482986,302.154205 241.990738,305.770630 
	C240.198181,318.940125 231.396072,328.323242 218.949600,328.650452 
	C212.372711,328.823364 205.737579,326.350250 199.104919,325.210449 
	C197.832916,324.991852 196.449722,325.420258 195.016663,326.289398 
z"/>
<path fill="#F6F1F0" opacity="1.000000" stroke="none" 
	d="
M360.250824,217.999863 
	C360.250824,198.135498 360.250824,178.771149 360.250824,159.406815 
	C359.499481,159.200439 358.748138,158.994064 357.996796,158.787689 
	C356.697815,160.844315 355.163391,162.790100 354.135162,164.974197 
	C338.757874,197.638168 323.448395,230.334076 308.118103,263.020203 
	C307.353699,264.649963 306.545532,266.259186 305.386139,268.641571 
	C302.931854,264.056946 300.827026,260.131897 298.728424,256.203461 
	C294.494354,248.277451 290.971283,239.855545 285.863098,232.540237 
	C278.508148,222.007446 279.964783,210.600281 280.165680,197.855545 
	C281.525452,200.008179 282.339722,201.136932 282.991058,202.352966 
	C290.141296,215.701599 297.201019,229.099396 304.466309,242.384918 
	C305.584564,244.429810 307.616150,245.975266 309.225311,247.751694 
	C310.761688,245.931625 312.779205,244.338745 313.762054,242.257309 
	C327.969543,212.168594 342.143341,182.062607 356.027252,151.823975 
	C358.128143,147.248337 360.460876,144.877884 365.648529,145.681808 
	C368.228394,146.081619 370.921356,145.751358 373.755981,145.751358 
	C373.755981,199.252594 373.755981,252.192642 373.755981,305.574982 
	C369.520630,305.574982 365.299072,305.574982 360.250824,305.574982 
	C360.250824,276.643738 360.250824,247.571808 360.250824,217.999863 
z"/>
<path fill="#F6F1F0" opacity="1.000000" stroke="none" 
	d="
M195.067230,325.919800 
	C196.449722,325.420258 197.832916,324.991852 199.104919,325.210449 
	C205.737579,326.350250 212.372711,328.823364 218.949600,328.650452 
	C231.396072,328.323242 240.198181,318.940125 241.990738,305.770630 
	C242.482986,302.154205 242.663940,298.469818 242.667297,294.816284 
	C242.710709,247.518829 242.696167,200.221329 242.696274,152.923828 
	C242.696274,150.784119 242.696289,148.644394 242.696289,146.602295 
	C243.544479,146.241104 243.976318,145.919495 244.430557,145.883896 
	C255.654968,145.004181 255.655472,145.009583 255.655426,156.142273 
	C255.655273,201.108200 255.728516,246.074387 255.558899,291.039673 
	C255.538467,296.459290 254.962601,302.113464 253.342148,307.248047 
	C247.395142,326.091675 229.030380,335.795380 207.663956,331.474854 
	C203.278015,330.587921 199.223801,328.060577 195.067230,325.919800 
z"/>
</svg>